<?xml version="1.0" encoding="UTF-8"?><svg xmlns:svg="http://www.w3.org/2000/svg" xmlns="http://www.w3.org/2000/svg" xmlns:xlink="http://www.w3.org/1999/xlink" version="1.0" width="241" height="636" viewBox="0 0 241 636" ><text x="65" y="8" font-family="Courier New, monospace" font-size="11" dominant-baseline="middle" text-anchor="middle" >0</text><text x="115" y="8" font-family="Courier New, monospace" font-size="11" dominant-baseline="middle" text-anchor="middle" >1</text><text x="165" y="8" font-family="Courier New, monospace" font-size="11" dominant-baseline="middle" text-anchor="middle" >2</text><text x="215" y="8" font-family="Courier New, monospace" font-size="11" dominant-baseline="middle" text-anchor="middle" >3</text><rect x="40" y="15" height="30" width="200" fill="#a0fafa" /><line x1="40" y1="15" x2="240" y2="15" stroke="#000000" stroke-width="1" /><line x1="40" y1="45" x2="240" y2="45" stroke="#000000" stroke-width="1" /><line x1="240" y1="15" x2="240" y2="45" stroke="#000000" stroke-width="1" /><line x1="40" y1="15" x2="40" y2="45" stroke="#000000" stroke-width="1" /><text font-size="18" font-family="Courier New, monospace" x="140" y="31" text-anchor="middle" dominant-baseline="middle" >&PDEventHandler</text><text font-size="11" font-family="Courier New, monospace" font-style="normal" dominant-baseline="middle" x="35" y="30" text-anchor="end" >00</text><text font-size="11" font-family="Courier New, monospace" font-style="normal" dominant-baseline="middle" x="35" y="60" text-anchor="end" >04</text><rect x="40" y="45" height="30" width="200" fill="#ffffa0" /><line x1="40" y1="45" x2="240" y2="45" stroke="#000000" stroke-width="1" /><line x1="40" y1="75" x2="240" y2="75" stroke="#000000" stroke-width="1" /><line x1="240" y1="45" x2="240" y2="75" stroke="#000000" stroke-width="1" /><line x1="40" y1="45" x2="40" y2="75" stroke="#000000" stroke-width="1" /><text font-size="18" font-family="Courier New, monospace" x="140" y="61" text-anchor="middle" dominant-baseline="middle" >&bss_start</text><text font-size="11" font-family="Courier New, monospace" font-style="normal" dominant-baseline="middle" x="35" y="90" text-anchor="end" >08</text><rect x="40" y="75" height="30" width="200" fill="#ffffa0" /><line x1="40" y1="75" x2="240" y2="75" stroke="#000000" stroke-width="1" /><line x1="40" y1="105" x2="240" y2="105" stroke="#000000" stroke-width="1" /><line x1="240" y1="75" x2="240" y2="105" stroke="#000000" stroke-width="1" /><line x1="40" y1="75" x2="40" y2="105" stroke="#000000" stroke-width="1" /><text font-size="18" font-family="Courier New, monospace" x="140" y="91" text-anchor="middle" dominant-baseline="middle" >&bss_end</text><text font-size="11" font-family="Courier New, monospace" font-style="normal" dominant-baseline="middle" x="35" y="120" text-anchor="end" >0c</text><line x1="40" y1="105" x2="40" y2="105" stroke="#000000" stroke-width="1" /><line x1="40" y1="105" x2="40" y2="135" stroke="#000000" stroke-width="1" /><line x1="40" y1="105" x2="40" y2="135" stroke="#000000" stroke-width="1" /><line x1="240" y1="105" x2="240" y2="135" stroke="#000000" stroke-width="1" /><line x1="40" y1="105" x2="40" y2="135" stroke="#000000" stroke-width="1" /><text font-size="18" font-family="Courier New, monospace" x="140" y="121" text-anchor="middle" dominant-baseline="middle" >.text</text><text font-size="11" font-family="Courier New, monospace" font-style="normal" dominant-baseline="middle" x="35" y="150" text-anchor="end" >10</text><line x1="40" y1="135" x2="40" y2="150" stroke="#000000" stroke-width="1" /><line x1="240" y1="135" x2="240" y2="150" stroke="#000000" stroke-width="1" /><line stroke-dasharray="1,1" x1="40" y1="150" x2="240" y2="180" stroke="#000000" stroke-width="1" /><line x1="240" y1="135" x2="240" y2="180" stroke="#000000" stroke-width="1" /><line stroke-dasharray="1,1" x1="40" y1="160" x2="240" y2="190" stroke="#000000" stroke-width="1" /><line x1="40" y1="160" x2="40" y2="190" stroke="#000000" stroke-width="1" /><line x1="40" y1="190" x2="40" y2="205" stroke="#000000" stroke-width="1" /><line x1="240" y1="190" x2="240" y2="205" stroke="#000000" stroke-width="1" /><text font-size="11" font-family="Palatino, Georgia, Times New Roman, serif" font-style="italic" dominant-baseline="middle" x="35" y="220" text-anchor="end" >i+<tspan font-size="11" font-family="Courier New, monospace" font-style="normal" dominant-baseline="middle" >00</tspan></text><line x1="40" y1="205" x2="240" y2="205" stroke="#000000" stroke-width="1" /><line x1="240" y1="205" x2="240" y2="235" stroke="#000000" stroke-width="1" /><line x1="40" y1="205" x2="40" y2="235" stroke="#000000" stroke-width="1" /><text font-size="11" font-family="Palatino, Georgia, Times New Roman, serif" font-style="italic" dominant-baseline="middle" x="35" y="220" text-anchor="end" >i+<tspan font-size="11" font-family="Courier New, monospace" font-style="normal" dominant-baseline="middle" >00</tspan></text><text font-size="11" font-family="Palatino, Georgia, Times New Roman, serif" font-style="italic" dominant-baseline="middle" x="35" y="250" text-anchor="end" >i+<tspan font-size="11" font-family="Courier New, monospace" font-style="normal" dominant-baseline="middle" >04</tspan></text><line x1="240" y1="235" x2="240" y2="265" stroke="#000000" stroke-width="1" /><line x1="40" y1="235" x2="40" y2="265" stroke="#000000" stroke-width="1" /><text font-size="18" font-family="Courier New, monospace" x="140" y="251" text-anchor="middle" dominant-baseline="middle" >.data</text><text font-size="11" font-family="Palatino, Georgia, Times New Roman, serif" font-style="italic" dominant-baseline="middle" x="35" y="280" text-anchor="end" >i+<tspan font-size="11" font-family="Courier New, monospace" font-style="normal" dominant-baseline="middle" >08</tspan></text><line x1="40" y1="265" x2="40" y2="280" stroke="#000000" stroke-width="1" /><line x1="240" y1="265" x2="240" y2="280" stroke="#000000" stroke-width="1" /><line stroke-dasharray="1,1" x1="40" y1="280" x2="240" y2="310" stroke="#000000" stroke-width="1" /><line x1="240" y1="265" x2="240" y2="310" stroke="#000000" stroke-width="1" /><line stroke-dasharray="1,1" x1="40" y1="290" x2="240" y2="320" stroke="#000000" stroke-width="1" /><line x1="40" y1="290" x2="40" y2="320" stroke="#000000" stroke-width="1" /><line x1="40" y1="320" x2="40" y2="335" stroke="#000000" stroke-width="1" /><line x1="240" y1="320" x2="240" y2="335" stroke="#000000" stroke-width="1" /><text font-size="11" font-family="Palatino, Georgia, Times New Roman, serif" font-style="italic" dominant-baseline="middle" x="35" y="350" text-anchor="end" >i+<tspan font-size="11" font-family="Courier New, monospace" font-style="normal" dominant-baseline="middle" >00</tspan></text><rect x="40" y="335" height="30" width="200" fill="#ffffa0" /><line x1="40" y1="335" x2="240" y2="335" stroke="#000000" stroke-width="1" /><line x1="40" y1="365" x2="240" y2="365" stroke="#000000" stroke-width="1" /><line x1="240" y1="335" x2="240" y2="365" stroke="#000000" stroke-width="1" /><line x1="40" y1="335" x2="40" y2="365" stroke="#000000" stroke-width="1" /><text font-size="18" font-family="Courier New, monospace" x="140" y="351" text-anchor="middle" dominant-baseline="middle" >bss start</text><text font-size="11" font-family="Palatino, Georgia, Times New Roman, serif" font-style="italic" dominant-baseline="middle" x="35" y="350" text-anchor="end" >i+<tspan font-size="11" font-family="Courier New, monospace" font-style="normal" dominant-baseline="middle" >00</tspan></text><text font-size="11" font-family="Palatino, Georgia, Times New Roman, serif" font-style="italic" dominant-baseline="middle" x="35" y="380" text-anchor="end" >i+<tspan font-size="11" font-family="Courier New, monospace" font-style="normal" dominant-baseline="middle" >04</tspan></text><rect x="40" y="365" height="30" width="50" fill="#ffffa0" /><line x1="40" y1="365" x2="90" y2="365" stroke="#000000" stroke-width="1" /><line stroke-dasharray="1,3" x1="40" y1="395" x2="90" y2="395" stroke="#000000" stroke-width="1" /><line stroke-dasharray="1,3" x1="90" y1="365" x2="90" y2="395" stroke="#000000" stroke-width="1" /><line x1="40" y1="365" x2="40" y2="395" stroke="#000000" stroke-width="1" /><text font-size="18" font-family="Palatino, Georgia, Times New Roman, serif" x="65" y="381" text-anchor="middle" dominant-baseline="middle" ></text><rect x="90" y="365" height="30" width="50" fill="#ffffa0" /><line x1="90" y1="365" x2="140" y2="365" stroke="#000000" stroke-width="1" /><line stroke-dasharray="1,3" x1="90" y1="395" x2="140" y2="395" stroke="#000000" stroke-width="1" /><line stroke-dasharray="1,3" x1="140" y1="365" x2="140" y2="395" stroke="#000000" stroke-width="1" /><line stroke-dasharray="1,3" x1="90" y1="365" x2="90" y2="395" stroke="#000000" stroke-width="1" /><text font-size="18" font-family="Palatino, Georgia, Times New Roman, serif" x="115" y="381" text-anchor="middle" dominant-baseline="middle" ></text><rect x="140" y="365" height="30" width="50" fill="#ffffa0" /><line x1="140" y1="365" x2="190" y2="365" stroke="#000000" stroke-width="1" /><line stroke-dasharray="1,3" x1="140" y1="395" x2="190" y2="395" stroke="#000000" stroke-width="1" /><line stroke-dasharray="1,3" x1="190" y1="365" x2="190" y2="395" stroke="#000000" stroke-width="1" /><line stroke-dasharray="1,3" x1="140" y1="365" x2="140" y2="395" stroke="#000000" stroke-width="1" /><text font-size="18" font-family="Palatino, Georgia, Times New Roman, serif" x="165" y="381" text-anchor="middle" dominant-baseline="middle" ></text><rect x="190" y="365" height="30" width="50" fill="#ffffa0" /><line x1="190" y1="365" x2="240" y2="365" stroke="#000000" stroke-width="1" /><line stroke-dasharray="1,3" x1="190" y1="395" x2="240" y2="395" stroke="#000000" stroke-width="1" /><line x1="240" y1="365" x2="240" y2="395" stroke="#000000" stroke-width="1" /><line stroke-dasharray="1,3" x1="190" y1="365" x2="190" y2="395" stroke="#000000" stroke-width="1" /><text font-size="18" font-family="Palatino, Georgia, Times New Roman, serif" x="215" y="381" text-anchor="middle" dominant-baseline="middle" ></text><text font-size="11" font-family="Palatino, Georgia, Times New Roman, serif" font-style="italic" dominant-baseline="middle" x="35" y="410" text-anchor="end" >i+<tspan font-size="11" font-family="Courier New, monospace" font-style="normal" dominant-baseline="middle" >08</tspan></text><rect x="40" y="395" height="30" width="50" fill="#ffffa0" /><line stroke-dasharray="1,3" x1="40" y1="395" x2="90" y2="395" stroke="#000000" stroke-width="1" /><line stroke-dasharray="1,3" x1="40" y1="425" x2="90" y2="425" stroke="#000000" stroke-width="1" /><line stroke-dasharray="1,3" x1="90" y1="395" x2="90" y2="425" stroke="#000000" stroke-width="1" /><line x1="40" y1="395" x2="40" y2="425" stroke="#000000" stroke-width="1" /><text font-size="18" font-family="Palatino, Georgia, Times New Roman, serif" x="65" y="411" text-anchor="middle" dominant-baseline="middle" ></text><rect x="90" y="395" height="30" width="50" fill="#ffffa0" /><line stroke-dasharray="1,3" x1="90" y1="395" x2="140" y2="395" stroke="#000000" stroke-width="1" /><line stroke-dasharray="1,3" x1="90" y1="425" x2="140" y2="425" stroke="#000000" stroke-width="1" /><line stroke-dasharray="1,3" x1="140" y1="395" x2="140" y2="425" stroke="#000000" stroke-width="1" /><line stroke-dasharray="1,3" x1="90" y1="395" x2="90" y2="425" stroke="#000000" stroke-width="1" /><text font-size="18" font-family="Palatino, Georgia, Times New Roman, serif" x="115" y="411" text-anchor="middle" dominant-baseline="middle" ></text><rect x="140" y="395" height="30" width="50" fill="#ffffa0" /><line stroke-dasharray="1,3" x1="140" y1="395" x2="190" y2="395" stroke="#000000" stroke-width="1" /><line stroke-dasharray="1,3" x1="140" y1="425" x2="190" y2="425" stroke="#000000" stroke-width="1" /><line stroke-dasharray="1,3" x1="190" y1="395" x2="190" y2="425" stroke="#000000" stroke-width="1" /><line stroke-dasharray="1,3" x1="140" y1="395" x2="140" y2="425" stroke="#000000" stroke-width="1" /><text font-size="18" font-family="Palatino, Georgia, Times New Roman, serif" x="165" y="411" text-anchor="middle" dominant-baseline="middle" ></text><rect x="190" y="395" height="30" width="50" fill="#ffffa0" /><line stroke-dasharray="1,3" x1="190" y1="395" x2="240" y2="395" stroke="#000000" stroke-width="1" /><line stroke-dasharray="1,3" x1="190" y1="425" x2="240" y2="425" stroke="#000000" stroke-width="1" /><line x1="240" y1="395" x2="240" y2="425" stroke="#000000" stroke-width="1" /><line stroke-dasharray="1,3" x1="190" y1="395" x2="190" y2="425" stroke="#000000" stroke-width="1" /><text font-size="18" font-family="Palatino, Georgia, Times New Roman, serif" x="215" y="411" text-anchor="middle" dominant-baseline="middle" ></text><text font-size="11" font-family="Palatino, Georgia, Times New Roman, serif" font-style="italic" dominant-baseline="middle" x="35" y="440" text-anchor="end" >i+<tspan font-size="11" font-family="Courier New, monospace" font-style="normal" dominant-baseline="middle" >0c</tspan></text><rect x="40" y="425" height="30" width="50" fill="#ffffa0" /><line stroke-dasharray="1,3" x1="40" y1="425" x2="90" y2="425" stroke="#000000" stroke-width="1" /><line stroke-dasharray="1,3" x1="40" y1="455" x2="90" y2="455" stroke="#000000" stroke-width="1" /><line stroke-dasharray="1,3" x1="90" y1="425" x2="90" y2="455" stroke="#000000" stroke-width="1" /><line x1="40" y1="425" x2="40" y2="455" stroke="#000000" stroke-width="1" /><text font-size="18" font-family="Palatino, Georgia, Times New Roman, serif" x="65" y="441" text-anchor="middle" dominant-baseline="middle" ></text><rect x="90" y="425" height="30" width="50" fill="#ffffa0" /><line stroke-dasharray="1,3" x1="90" y1="425" x2="140" y2="425" stroke="#000000" stroke-width="1" /><line stroke-dasharray="1,3" x1="90" y1="455" x2="140" y2="455" stroke="#000000" stroke-width="1" /><line stroke-dasharray="1,3" x1="140" y1="425" x2="140" y2="455" stroke="#000000" stroke-width="1" /><line stroke-dasharray="1,3" x1="90" y1="425" x2="90" y2="455" stroke="#000000" stroke-width="1" /><text font-size="18" font-family="Palatino, Georgia, Times New Roman, serif" x="115" y="441" text-anchor="middle" dominant-baseline="middle" ></text><rect x="140" y="425" height="30" width="50" fill="#ffffa0" /><line stroke-dasharray="1,3" x1="140" y1="425" x2="190" y2="425" stroke="#000000" stroke-width="1" /><line stroke-dasharray="1,3" x1="140" y1="455" x2="190" y2="455" stroke="#000000" stroke-width="1" /><line stroke-dasharray="1,3" x1="190" y1="425" x2="190" y2="455" stroke="#000000" stroke-width="1" /><line stroke-dasharray="1,3" x1="140" y1="425" x2="140" y2="455" stroke="#000000" stroke-width="1" /><text font-size="18" font-family="Palatino, Georgia, Times New Roman, serif" x="165" y="441" text-anchor="middle" dominant-baseline="middle" ></text><rect x="190" y="425" height="30" width="50" fill="#ffffa0" /><line stroke-dasharray="1,3" x1="190" y1="425" x2="240" y2="425" stroke="#000000" stroke-width="1" /><line stroke-dasharray="1,3" x1="190" y1="455" x2="240" y2="455" stroke="#000000" stroke-width="1" /><line x1="240" y1="425" x2="240" y2="455" stroke="#000000" stroke-width="1" /><line stroke-dasharray="1,3" x1="190" y1="425" x2="190" y2="455" stroke="#000000" stroke-width="1" /><text font-size="18" font-family="Palatino, Georgia, Times New Roman, serif" x="215" y="441" text-anchor="middle" dominant-baseline="middle" ></text><text font-size="11" font-family="Palatino, Georgia, Times New Roman, serif" font-style="italic" dominant-baseline="middle" x="35" y="470" text-anchor="end" >i+<tspan font-size="11" font-family="Courier New, monospace" font-style="normal" dominant-baseline="middle" >10</tspan></text><rect x="40" y="455" height="30" width="50" fill="#ffffa0" /><line stroke-dasharray="1,3" x1="40" y1="455" x2="90" y2="455" stroke="#000000" stroke-width="1" /><line stroke-dasharray="1,3" x1="40" y1="485" x2="90" y2="485" stroke="#000000" stroke-width="1" /><line stroke-dasharray="1,3" x1="90" y1="455" x2="90" y2="485" stroke="#000000" stroke-width="1" /><line x1="40" y1="455" x2="40" y2="485" stroke="#000000" stroke-width="1" /><text font-size="18" font-family="Palatino, Georgia, Times New Roman, serif" x="65" y="471" text-anchor="middle" dominant-baseline="middle" ></text><rect x="90" y="455" height="30" width="50" fill="#ffffa0" /><line stroke-dasharray="1,3" x1="90" y1="455" x2="140" y2="455" stroke="#000000" stroke-width="1" /><line stroke-dasharray="1,3" x1="90" y1="485" x2="140" y2="485" stroke="#000000" stroke-width="1" /><line stroke-dasharray="1,3" x1="140" y1="455" x2="140" y2="485" stroke="#000000" stroke-width="1" /><line stroke-dasharray="1,3" x1="90" y1="455" x2="90" y2="485" stroke="#000000" stroke-width="1" /><text font-size="18" font-family="Palatino, Georgia, Times New Roman, serif" x="115" y="471" text-anchor="middle" dominant-baseline="middle" ></text><rect x="140" y="455" height="30" width="50" fill="#ffffa0" /><line stroke-dasharray="1,3" x1="140" y1="455" x2="190" y2="455" stroke="#000000" stroke-width="1" /><line stroke-dasharray="1,3" x1="140" y1="485" x2="190" y2="485" stroke="#000000" stroke-width="1" /><line stroke-dasharray="1,3" x1="190" y1="455" x2="190" y2="485" stroke="#000000" stroke-width="1" /><line stroke-dasharray="1,3" x1="140" y1="455" x2="140" y2="485" stroke="#000000" stroke-width="1" /><text font-size="18" font-family="Palatino, Georgia, Times New Roman, serif" x="165" y="471" text-anchor="middle" dominant-baseline="middle" ></text><rect x="190" y="455" height="30" width="50" fill="#ffffa0" /><line stroke-dasharray="1,3" x1="190" y1="455" x2="240" y2="455" stroke="#000000" stroke-width="1" /><line stroke-dasharray="1,3" x1="190" y1="485" x2="240" y2="485" stroke="#000000" stroke-width="1" /><line x1="240" y1="455" x2="240" y2="485" stroke="#000000" stroke-width="1" /><line stroke-dasharray="1,3" x1="190" y1="455" x2="190" y2="485" stroke="#000000" stroke-width="1" /><text font-size="18" font-family="Palatino, Georgia, Times New Roman, serif" x="215" y="471" text-anchor="middle" dominant-baseline="middle" ></text><text font-size="11" font-family="Palatino, Georgia, Times New Roman, serif" font-style="italic" dominant-baseline="middle" x="35" y="500" text-anchor="end" >i+<tspan font-size="11" font-family="Courier New, monospace" font-style="normal" dominant-baseline="middle" >14</tspan></text><rect x="40" y="485" height="30" width="50" fill="#ffffa0" /><line stroke-dasharray="1,3" x1="40" y1="485" x2="90" y2="485" stroke="#000000" stroke-width="1" /><line stroke-dasharray="1,3" x1="40" y1="515" x2="90" y2="515" stroke="#000000" stroke-width="1" /><line stroke-dasharray="1,3" x1="90" y1="485" x2="90" y2="515" stroke="#000000" stroke-width="1" /><line x1="40" y1="485" x2="40" y2="515" stroke="#000000" stroke-width="1" /><text font-size="18" font-family="Palatino, Georgia, Times New Roman, serif" x="65" y="501" text-anchor="middle" dominant-baseline="middle" ></text><rect x="90" y="485" height="30" width="50" fill="#ffffa0" /><line stroke-dasharray="1,3" x1="90" y1="485" x2="140" y2="485" stroke="#000000" stroke-width="1" /><line stroke-dasharray="1,3" x1="90" y1="515" x2="140" y2="515" stroke="#000000" stroke-width="1" /><line stroke-dasharray="1,3" x1="140" y1="485" x2="140" y2="515" stroke="#000000" stroke-width="1" /><line stroke-dasharray="1,3" x1="90" y1="485" x2="90" y2="515" stroke="#000000" stroke-width="1" /><text font-size="18" font-family="Palatino, Georgia, Times New Roman, serif" x="115" y="501" text-anchor="middle" dominant-baseline="middle" ></text><rect x="140" y="485" height="30" width="50" fill="#ffffa0" /><line stroke-dasharray="1,3" x1="140" y1="485" x2="190" y2="485" stroke="#000000" stroke-width="1" /><line stroke-dasharray="1,3" x1="140" y1="515" x2="190" y2="515" stroke="#000000" stroke-width="1" /><line stroke-dasharray="1,3" x1="190" y1="485" x2="190" y2="515" stroke="#000000" stroke-width="1" /><line stroke-dasharray="1,3" x1="140" y1="485" x2="140" y2="515" stroke="#000000" stroke-width="1" /><text font-size="18" font-family="Palatino, Georgia, Times New Roman, serif" x="165" y="501" text-anchor="middle" dominant-baseline="middle" ></text><rect x="190" y="485" height="30" width="50" fill="#ffffa0" /><line stroke-dasharray="1,3" x1="190" y1="485" x2="240" y2="485" stroke="#000000" stroke-width="1" /><line stroke-dasharray="1,3" x1="190" y1="515" x2="240" y2="515" stroke="#000000" stroke-width="1" /><line x1="240" y1="485" x2="240" y2="515" stroke="#000000" stroke-width="1" /><line stroke-dasharray="1,3" x1="190" y1="485" x2="190" y2="515" stroke="#000000" stroke-width="1" /><text font-size="18" font-family="Palatino, Georgia, Times New Roman, serif" x="215" y="501" text-anchor="middle" dominant-baseline="middle" ></text><text font-size="11" font-family="Palatino, Georgia, Times New Roman, serif" font-style="italic" dominant-baseline="middle" x="35" y="530" text-anchor="end" >i+<tspan font-size="11" font-family="Courier New, monospace" font-style="normal" dominant-baseline="middle" >18</tspan></text><rect x="40" y="515" height="30" width="50" fill="#ffffa0" /><line stroke-dasharray="1,3" x1="40" y1="515" x2="90" y2="515" stroke="#000000" stroke-width="1" /><line x1="40" y1="545" x2="90" y2="545" stroke="#000000" stroke-width="1" /><line stroke-dasharray="1,3" x1="90" y1="515" x2="90" y2="545" stroke="#000000" stroke-width="1" /><line x1="40" y1="515" x2="40" y2="545" stroke="#000000" stroke-width="1" /><text font-size="18" font-family="Palatino, Georgia, Times New Roman, serif" x="65" y="531" text-anchor="middle" dominant-baseline="middle" ></text><rect x="90" y="515" height="30" width="50" fill="#ffffa0" /><line stroke-dasharray="1,3" x1="90" y1="515" x2="140" y2="515" stroke="#000000" stroke-width="1" /><line x1="90" y1="545" x2="140" y2="545" stroke="#000000" stroke-width="1" /><line stroke-dasharray="1,3" x1="140" y1="515" x2="140" y2="545" stroke="#000000" stroke-width="1" /><line stroke-dasharray="1,3" x1="90" y1="515" x2="90" y2="545" stroke="#000000" stroke-width="1" /><text font-size="18" font-family="Palatino, Georgia, Times New Roman, serif" x="115" y="531" text-anchor="middle" dominant-baseline="middle" ></text><rect x="140" y="515" height="30" width="50" fill="#ffffa0" /><line stroke-dasharray="1,3" x1="140" y1="515" x2="190" y2="515" stroke="#000000" stroke-width="1" /><line x1="140" y1="545" x2="190" y2="545" stroke="#000000" stroke-width="1" /><line stroke-dasharray="1,3" x1="190" y1="515" x2="190" y2="545" stroke="#000000" stroke-width="1" /><line stroke-dasharray="1,3" x1="140" y1="515" x2="140" y2="545" stroke="#000000" stroke-width="1" /><text font-size="18" font-family="Palatino, Georgia, Times New Roman, serif" x="165" y="531" text-anchor="middle" dominant-baseline="middle" ></text><rect x="190" y="515" height="30" width="50" fill="#ffffa0" /><line stroke-dasharray="1,3" x1="190" y1="515" x2="240" y2="515" stroke="#000000" stroke-width="1" /><line x1="190" y1="545" x2="240" y2="545" stroke="#000000" stroke-width="1" /><line x1="240" y1="515" x2="240" y2="545" stroke="#000000" stroke-width="1" /><line stroke-dasharray="1,3" x1="190" y1="515" x2="190" y2="545" stroke="#000000" stroke-width="1" /><text font-size="18" font-family="Palatino, Georgia, Times New Roman, serif" x="215" y="531" text-anchor="middle" dominant-baseline="middle" ></text><text font-size="11" font-family="Palatino, Georgia, Times New Roman, serif" font-style="italic" dominant-baseline="middle" x="35" y="560" text-anchor="end" >i+<tspan font-size="11" font-family="Courier New, monospace" font-style="normal" dominant-baseline="middle" >1c</tspan></text><rect x="40" y="545" height="30" width="200" fill="#ffffa0" /><line x1="40" y1="545" x2="240" y2="545" stroke="#000000" stroke-width="1" /><line x1="40" y1="575" x2="240" y2="575" stroke="#000000" stroke-width="1" /><line x1="240" y1="545" x2="240" y2="575" stroke="#000000" stroke-width="1" /><line x1="40" y1="545" x2="40" y2="575" stroke="#000000" stroke-width="1" /><text font-size="18" font-family="Courier New, monospace" x="140" y="561" text-anchor="middle" dominant-baseline="middle" >.bss.pdrealloc</text><text font-size="11" font-family="Palatino, Georgia, Times New Roman, serif" font-style="italic" dominant-baseline="middle" x="35" y="590" text-anchor="end" >i+<tspan font-size="11" font-family="Courier New, monospace" font-style="normal" dominant-baseline="middle" >20</tspan></text><rect x="40" y="575" height="30" width="200" fill="#ffffa0" /><line x1="40" y1="575" x2="240" y2="575" stroke="#000000" stroke-width="1" /><line x1="40" y1="605" x2="240" y2="605" stroke="#000000" stroke-width="1" /><line x1="240" y1="575" x2="240" y2="605" stroke="#000000" stroke-width="1" /><line x1="40" y1="575" x2="40" y2="605" stroke="#000000" stroke-width="1" /><text font-size="18" font-family="Courier New, monospace" x="140" y="591" text-anchor="middle" dominant-baseline="middle" >.bss.pd</text><text font-size="11" font-family="Palatino, Georgia, Times New Roman, serif" font-style="italic" dominant-baseline="middle" x="35" y="620" text-anchor="end" >i+<tspan font-size="11" font-family="Courier New, monospace" font-style="normal" dominant-baseline="middle" >24</tspan></text><rect x="40" y="605" height="30" width="200" fill="#ffffa0" /><line x1="40" y1="605" x2="240" y2="605" stroke="#000000" stroke-width="1" /><line x1="40" y1="635" x2="240" y2="635" stroke="#000000" stroke-width="1" /><line x1="240" y1="605" x2="240" y2="635" stroke="#000000" stroke-width="1" /><line x1="40" y1="605" x2="40" y2="635" stroke="#000000" stroke-width="1" /><text font-size="18" font-family="Courier New, monospace" x="140" y="621" text-anchor="middle" dominant-baseline="middle" >bss end</text><line x1="40" y1="605" x2="240" y2="605" stroke="#000000" stroke-width="1" /></svg>